<?xml version="1.0" encoding="utf-8"?>
<!-- Generator: Adobe Illustrator 25.0.0, SVG Export Plug-In . SVG Version: 6.00 Build 0)  -->
<svg version="1.1" id="Layer_1" xmlns="http://www.w3.org/2000/svg" xmlns:xlink="http://www.w3.org/1999/xlink" x="0px" y="0px"
	 viewBox="0 0 309.37 184.39" style="enable-background:new 0 0 309.37 184.39;" xml:space="preserve">
<style type="text/css">
	.st0{fill:#005B99;}
	.st1{fill:#D51771;}
	.st2{fill:#010101;}
	.st3{fill-rule:evenodd;clip-rule:evenodd;fill:#D51771;}
	.st4{fill-rule:evenodd;clip-rule:evenodd;fill:#005B99;}
</style>
<g>
	<g>
		<path class="st0" d="M162.59,112.39c0.35-0.33,0.71-0.66,1.05-0.99c0.17-0.16,0.3-0.37,0.48-0.52c1.02-0.86,2.06-1.69,3.31-2.19
			c0.65-0.26,1.33-0.46,2-0.64c1.25-0.33,2.54-0.35,3.82-0.21c0.53,0.06,1.08,0.12,1.61,0.25c0.22,0.05,0.43,0.18,0.64,0.27
			c0.11,0.04,0.22,0.12,0.32,0.12c0.72-0.05,1.22,0.48,1.81,0.74c0.67,0.29,1.27,0.8,1.83,1.29c1.98,1.74,3.16,3.99,3.9,6.47
			c0.4,1.35,0.64,2.73,0.78,4.14c0.18,1.76,0.21,3.51,0.09,5.27c-0.11,1.62-0.36,3.23-0.83,4.78c-0.28,0.92-0.61,1.82-0.98,2.7
			c-0.25,0.59-0.62,1.13-0.94,1.69c-0.16,0.29-0.31,0.59-0.51,0.85c-0.34,0.44-0.7,0.85-1.07,1.26c-0.18,0.21-0.42,0.37-0.59,0.58
			c-0.57,0.7-1.32,1.17-2.09,1.6c-0.53,0.29-1.09,0.52-1.65,0.74c-1.61,0.61-3.27,0.74-4.97,0.55c-1.56-0.17-3.02-0.63-4.32-1.5
			c-0.7-0.47-1.38-0.99-1.97-1.58c-0.56-0.55-1-1.22-1.49-1.84c-0.09-0.12-0.19-0.23-0.36-0.43c-0.04,0.68-0.07,1.24-0.12,1.8
			c-0.07,0.88-0.43,1.68-0.92,2.37c-0.73,1.04-1.84,1.38-3.1,1.22c-1.25-0.16-2.01-0.93-2.47-2.05c-0.28-0.66-0.39-1.37-0.42-2.09
			c-0.01-0.38-0.01-0.75-0.01-1.13c0-11.53,0-23.07,0.01-34.6c0-1.03-0.01-2.07,0.18-3.07c0.16-0.83,0.61-1.58,1.3-2.15
			c0.71-0.58,1.52-0.72,2.4-0.62c0.35,0.04,0.7,0.12,1.04,0.21c0.13,0.04,0.22,0.2,0.34,0.28c0.92,0.58,1.36,1.47,1.54,2.49
			c0.12,0.64,0.18,1.3,0.18,1.95c0.02,3.76,0.01,7.53,0.01,11.3c0,0.21,0.01,0.42,0.02,0.62
			C162.49,112.36,162.54,112.37,162.59,112.39 M176.92,124.42c-0.06-0.89-0.1-1.78-0.2-2.66c-0.2-1.78-0.7-3.48-1.68-5
			c-1.23-1.9-2.95-2.95-5.26-2.85c-1.83,0.08-3.37,0.84-4.5,2.29c-0.58,0.74-1.12,1.54-1.49,2.4c-0.3,0.7-0.53,1.44-0.67,2.22
			c-0.28,1.51-0.38,3.02-0.35,4.55c0.03,1.41,0.2,2.8,0.63,4.15c0.54,1.68,1.41,3.14,2.87,4.2c1.95,1.41,5.47,1.9,7.86-0.68
			c0.91-0.98,1.57-2.08,2-3.34C176.71,127.98,176.9,126.22,176.92,124.42"/>
		<path class="st0" d="M244.31,126.63c0,0.27,0,0.48,0,0.7c0.02,1.16,0.22,2.28,0.61,3.39c0.35,1.01,0.82,1.93,1.45,2.76
			c0.97,1.28,2.29,2.05,3.84,2.38c0.63,0.13,1.3,0.01,1.95,0.04c1.14,0.06,2.16-0.37,3.11-0.89c0.8-0.43,1.52-1.04,2.2-1.65
			c0.87-0.79,1.67-1.65,2.49-2.49c0.62-0.63,1.35-0.91,2.21-0.8c1.75,0.24,2.6,2.02,2.12,3.31c-0.06,0.18-0.11,0.36-0.16,0.54
			c-0.41,1.47-1.27,2.64-2.36,3.67c-0.76,0.72-1.61,1.31-2.48,1.9c-0.76,0.51-1.6,0.71-2.41,1.04c-0.78,0.32-1.6,0.5-2.43,0.63
			c-1.32,0.21-2.64,0.23-3.97,0.16c-1.26-0.07-2.5-0.29-3.72-0.61c-1.56-0.41-2.95-1.15-4.21-2.12c-2.42-1.86-4-4.31-4.89-7.21
			c-0.84-2.73-1.05-5.53-0.9-8.37c0.12-2.13,0.52-4.21,1.24-6.23c0.81-2.26,2.08-4.22,3.9-5.77c1.65-1.4,3.54-2.39,5.69-2.84
			c1.98-0.41,3.96-0.5,5.95-0.23c1.25,0.18,2.45,0.52,3.6,1.06c1.01,0.47,1.85,1.19,2.75,1.82c1.25,0.87,2.09,2.09,2.85,3.35
			c0.65,1.09,1.2,2.27,1.46,3.54c0.15,0.72,0.41,1.42,0.5,2.15c0.12,0.93,0.26,1.88-0.02,2.82c-0.09,0.31-0.07,0.64-0.13,0.96
			c-0.2,1.06-0.85,1.84-1.76,2.32c-0.59,0.31-1.31,0.42-1.99,0.52c-0.61,0.09-1.22,0.13-1.84,0.13c-4.67,0.01-9.33,0.01-14,0.01
			c-0.21,0-0.7,0-0.7,0 M244.3,121.71h13.42c-0.1-0.74-0.18-1.44-0.3-2.14c-0.19-1.06-0.5-2.09-1.03-3.04
			c-0.77-1.37-1.85-2.4-3.37-2.88c-0.94-0.29-1.9-0.41-2.91-0.23c-0.6,0.11-1.18,0.2-1.73,0.45c-1.28,0.58-2.17,1.57-2.82,2.78
			c-0.47,0.87-0.76,1.82-0.96,2.8c-0.15,0.74-0.27,1.47-0.26,2.26"/>
		<path class="st0" d="M223.74,135.6c-0.22,0.28-0.36,0.46-0.5,0.65c-0.78,1.01-1.65,1.92-2.63,2.74c-0.85,0.7-1.82,1.2-2.81,1.62
			c-0.68,0.29-1.45,0.36-2.2,0.45c-1.93,0.24-3.84,0.15-5.66-0.66c-1.94-0.87-3.44-2.23-4.41-4.3c-0.68-1.45-0.92-3-1.05-4.57
			c-0.09-1.08-0.11-2.18-0.12-3.27c-0.01-5.11-0.01-10.23-0.01-15.34c0-0.56-0.13-1.17,0.03-1.68c0.23-0.76,0.4-1.55,0.91-2.22
			c0.81-1.06,2.55-1.57,3.69-1.16c1.48,0.53,2.36,1.57,2.6,3.13c0.1,0.62,0.14,1.26,0.14,1.89c0.01,4.42,0,8.84,0.01,13.26
			c0,1.53,0.1,3.05,0.45,4.54c0.12,0.52,0.28,1.04,0.5,1.52c0.88,1.93,2.47,2.87,4.8,2.55c2.81-0.39,5.13-2.84,5.53-5.7
			c0.27-1.95,0.32-3.91,0.33-5.87c0.02-3.45,0-6.9,0.01-10.35c0-0.59,0.07-1.18,0.12-1.77c0.07-0.76,0.42-1.41,0.79-2.02
			c0.14-0.26,0.39-0.42,0.61-0.58c0.48-0.35,1.02-0.59,1.59-0.68c1.24-0.19,2.25,0.29,3.11,1.14c0.64,0.63,0.91,1.43,1.02,2.29
			c0.07,0.51,0.11,1.03,0.11,1.54c0.01,7.91,0.01,15.82,0,23.73c0,0.84-0.08,1.66-0.36,2.46c-0.61,1.78-2.32,2.78-4.05,2.28
			c-0.66-0.19-1.23-0.59-1.68-1.12c-0.55-0.66-0.85-1.52-0.88-2.34c-0.02-0.45-0.01-0.96-0.01-1.45
			C223.77,136.09,223.75,135.91,223.74,135.6"/>
		<path class="st0" d="M282.16,141.27c-0.94-0.06-1.69-0.16-2.44-0.15c-1.33,0.02-2.53-0.46-3.73-0.89
			c-1.22-0.43-2.34-1.08-3.35-1.89c-1.66-1.33-2.67-3.05-3.03-5.15c-0.2-1.2,0.04-2.33,0.86-3.21c0.69-0.74,1.64-1,2.67-0.84
			c0.62,0.1,1.14,0.36,1.5,0.87c0.34,0.48,0.66,0.99,0.95,1.5c0.48,0.87,1.01,1.7,1.7,2.42c1.13,1.2,2.56,1.78,4.17,1.91
			c1.07,0.09,2.14,0.1,3.19-0.21c0.96-0.29,1.76-0.82,2.39-1.57c0.7-0.83,0.78-1.83,0.56-2.84c-0.26-1.23-1.01-1.99-2.17-2.53
			c-0.88-0.41-1.76-0.78-2.67-1.08c-0.96-0.32-1.93-0.6-2.91-0.85c-0.87-0.22-1.71-0.56-2.54-0.88c-0.83-0.32-1.66-0.66-2.45-1.06
			c-1.7-0.86-3.08-2.07-4.08-3.71c-0.23-0.38-0.33-0.78-0.49-1.17c-0.37-0.93-0.41-1.9-0.4-2.88c0.01-0.53-0.06-1.09,0.09-1.59
			c0.41-1.34,0.91-2.65,1.79-3.77c0.43-0.55,0.91-1.02,1.44-1.45c1.45-1.19,3.1-1.86,4.93-2.21c1.81-0.35,3.61-0.4,5.43-0.21
			c1.39,0.14,2.74,0.45,4.06,0.93c1.56,0.57,2.94,1.4,4.08,2.62c0.62,0.66,1.09,1.4,1.42,2.24c0.27,0.68,0.35,1.38,0.22,2.11
			c-0.05,0.25,0,0.52-0.08,0.76c-0.33,0.99-1,1.65-2.02,1.91c-1.31,0.33-2.48,0.1-3.4-0.98c-0.5-0.59-0.97-1.21-1.46-1.8
			c-0.34-0.41-0.67-0.83-1.05-1.21c-0.9-0.89-1.99-1.36-3.25-1.39c-0.59-0.02-1.19-0.03-1.77,0.04c-1.07,0.12-2.01,0.54-2.8,1.29
			c-1.2,1.15-1.1,3.15,0.2,4.12c0.52,0.39,1.09,0.73,1.68,0.99c0.53,0.24,1.15,0.29,1.68,0.52c1.63,0.69,3.37,0.98,5.04,1.54
			c0.77,0.26,1.54,0.52,2.29,0.84c1.6,0.67,3.09,1.52,4.32,2.78c1.43,1.47,2.16,3.23,2.17,5.29c0.01,1.93-0.34,3.78-1.26,5.49
			c-0.79,1.47-1.93,2.6-3.37,3.44c-1.53,0.9-3.19,1.4-4.93,1.64C284.23,141.13,283.1,141.19,282.16,141.27"/>
		<path class="st0" d="M196.9,118.33c0,5.89,0,11.77,0,17.66c0,0.85-0.06,1.7-0.31,2.53c-0.43,1.36-1.26,2.3-2.71,2.63
			c-0.98,0.22-1.86,0.02-2.72-0.57c-0.15-0.1-0.28-0.22-0.4-0.36c-0.75-0.86-1.09-1.9-1.29-2.96c-0.07-0.39,0.05-0.81,0.05-1.22
			c0-11.79,0-23.59,0-35.38c0-0.61-0.01-1.23,0.05-1.84c0.04-0.38,0.19-0.77,0.34-1.13c0.13-0.31,0.37-0.56,0.5-0.87
			c0.27-0.65,0.87-0.91,1.44-1.14c1.15-0.45,2.32-0.31,3.34,0.37c0.6,0.41,1.04,1.02,1.29,1.74c0.32,0.93,0.42,1.89,0.42,2.86
			c0,5.89,0,17.62,0,17.62"/>
	</g>
	<g>
		<path class="st1" d="M12.31,135.99c-0.09,0.87-0.12,1.67-0.25,2.44c-0.16,0.99-0.68,1.82-1.54,2.44
			c-1.32,0.94-3.27,0.71-4.26-0.57c-0.66-0.86-0.9-1.83-0.97-2.84c-0.03-0.39-0.02-0.79-0.02-1.19c0-11.72,0-23.43,0-35.15
			c0-0.47-0.12-0.95-0.05-1.4c0.15-1.02,0.28-2.07,0.95-2.92c0.79-1.02,1.88-1.29,3.09-1.11c1.65,0.24,2.48,1.34,2.79,2.87
			c0.14,0.67,0.2,1.37,0.2,2.06c0.02,3.71,0.01,7.41,0.01,11.12c0,0.29,0,0.58,0,0.95c0.17-0.12,0.31-0.19,0.4-0.32
			c0.21-0.31,0.44-0.6,0.74-0.82c1.07-0.79,1.98-1.77,3.18-2.4c1.87-0.98,3.86-1.25,5.93-1.17c1.15,0.04,2.25,0.29,3.34,0.65
			c1.24,0.41,2.33,1.07,3.3,1.91c1.04,0.9,1.9,1.96,2.59,3.16c1.1,1.93,1.77,4.02,2.11,6.2c0.5,3.18,0.47,6.36-0.12,9.52
			c-0.41,2.22-1.12,4.33-2.29,6.27c-1.56,2.59-3.71,4.47-6.67,5.31c-2.49,0.7-4.94,0.53-7.33-0.46c-1.3-0.54-2.39-1.4-3.34-2.43
			c-0.54-0.58-1.02-1.21-1.54-1.82C12.49,136.2,12.41,136.11,12.31,135.99 M12.6,124.83c0,1.37,0.09,2.73,0.42,4.07
			c0.41,1.67,1.13,3.16,2.37,4.38c2.11,2.07,6.24,2.72,8.83-0.34c0.97-1.14,1.63-2.43,1.99-3.87c0.67-2.74,0.68-5.49,0.17-8.25
			c-0.29-1.55-0.84-3.01-1.78-4.3c-2.27-3.11-6.14-2.97-8.42-1.2c-1.21,0.94-2,2.18-2.57,3.57
			C12.83,120.79,12.59,122.79,12.6,124.83"/>
		<path class="st1" d="M46.29,126.68c-0.04,2.02,0.36,3.86,1.28,5.57c0.84,1.57,2.06,2.77,3.79,3.34c2.11,0.7,4.15,0.46,6.07-0.65
			c0.98-0.56,1.84-1.28,2.61-2.13c0.71-0.79,1.49-1.53,2.29-2.23c1.18-1.03,3.34-0.44,3.89,1.03c0.27,0.71,0.25,1.43,0.04,2.16
			c-0.39,1.39-1.13,2.57-2.12,3.6c-1.8,1.87-4,3.03-6.51,3.6c-3.18,0.73-6.35,0.61-9.44-0.43c-3.8-1.27-6.35-3.92-7.93-7.55
			c-0.79-1.79-1.2-3.69-1.4-5.63c-0.27-2.56-0.18-5.11,0.34-7.63c0.16-0.75,0.26-1.53,0.53-2.25c1.14-3.08,2.82-5.76,5.68-7.57
			c1.69-1.07,3.51-1.72,5.49-1.92c1.04-0.1,2.09-0.09,3.14-0.16c0.85-0.06,1.64,0.25,2.47,0.31c0.87,0.06,1.62,0.48,2.43,0.72
			c0.67,0.2,1.26,0.69,1.86,1.09c3.03,2.01,4.78,4.89,5.64,8.37c0.34,1.38,0.45,2.77,0.37,4.19c-0.03,0.39-0.09,0.79-0.18,1.17
			c-0.28,1.21-0.99,2.04-2.19,2.44c-1.16,0.39-2.35,0.54-3.57,0.49l-13.86,0.38h-0.63 M59.69,122.08c-0.05-0.52-0.09-0.97-0.15-1.42
			c-0.18-1.3-0.49-2.57-1.13-3.73c-1.11-2.01-2.8-3.13-5.12-3.23c-2.41-0.1-4.2,0.93-5.46,2.95c-0.65,1.04-1.02,2.19-1.26,3.38
			c-0.13,0.67-0.29,1.34-0.26,2.06H59.69z"/>
		<path class="st1" d="M132.31,132.34c0.35-1.11,0.69-2.23,1.05-3.34c0.09-0.27,0.19-0.54,0.28-0.82c0.29-0.93,0.59-1.86,0.87-2.79
			c0.26-0.88,0.49-1.77,0.76-2.65c0.31-0.99,0.69-1.95,0.99-2.94c0.36-1.16,0.65-2.34,1.03-3.5c0.68-2.05,1.42-4.08,2.12-6.13
			c0.17-0.5,0.41-0.96,0.76-1.36c0.99-1.11,2.51-1.23,3.83-0.43c1.04,0.63,1.52,1.6,1.67,2.76c0.03,0.21-0.01,0.43-0.05,0.65
			c-0.37,2.07-1.07,4.05-1.75,6.03c-1.57,4.58-3.14,9.16-4.72,13.74c-1.54,4.49-3.06,8.98-4.64,13.45
			c-0.47,1.34-1.05,2.65-1.69,3.92c-1.39,2.76-3.67,4.28-6.75,4.62c-1.81,0.2-3.6,0.14-5.38-0.24c-0.4-0.09-0.8-0.22-1.19-0.38
			c-0.95-0.39-1.57-1.1-1.71-2.11c-0.09-0.62-0.19-1.31-0.01-1.88c0.24-0.76,0.76-1.42,1.61-1.69c0.82-0.26,1.63-0.28,2.45-0.05
			c0.91,0.25,1.82,0.27,2.74,0c0.56-0.16,1.01-0.46,1.34-0.92c0.31-0.43,0.62-0.88,0.83-1.37c0.57-1.33,1.08-2.68,1.62-4.02
			c0.12-0.3,0.01-0.54-0.08-0.8c-1.4-3.94-2.8-7.87-4.21-11.81c-1.64-4.61-3.29-9.21-4.93-13.82c-0.2-0.55-0.5-1.09-0.57-1.66
			c-0.1-0.76-0.11-1.53,0.16-2.29c0.36-1.01,0.98-1.8,1.93-2.28c1.23-0.62,2.8-0.43,3.75,0.74c0.67,0.82,1.07,1.75,1.37,2.73
			c0.92,2.93,1.81,5.86,2.72,8.79c1.2,3.87,2.39,7.75,3.59,11.62c0.02,0.07,0.05,0.14,0.08,0.21
			C132.24,132.34,132.27,132.34,132.31,132.34"/>
		<path class="st1" d="M80.16,112.89c0.09-0.08,0.15-0.11,0.17-0.16c0.4-1.06,1.07-1.96,1.79-2.8c0.62-0.73,1.38-1.33,2.32-1.67
			c1.21-0.43,2.39-0.41,3.66-0.19c1.29,0.23,2.43,0.72,3.49,1.41c1.48,0.96,2.05,2.52,1.62,4.19c-0.25,0.98-0.85,1.69-1.73,2.16
			c-0.51,0.27-1.05,0.35-1.61,0.17c-0.6-0.19-1.21-0.39-1.81-0.58c-0.87-0.28-1.76-0.47-2.68-0.42c-1.16,0.06-2.1,0.52-2.82,1.43
			c-0.53,0.68-0.88,1.45-1.13,2.27c-0.48,1.58-0.71,3.21-0.83,4.85c-0.3,4.16-0.16,8.32-0.2,12.48c-0.01,0.71-0.07,1.42-0.16,2.13
			c-0.08,0.61-0.32,1.18-0.67,1.7c-1.51,2.19-4.64,2.02-5.89-0.33c-0.49-0.92-0.6-1.92-0.65-2.93c-0.01-0.16,0-0.32,0-0.48
			c0-7.49-0.01-14.98,0.01-22.47c0-0.77,0.1-1.54,0.18-2.31c0.1-0.96,0.52-1.8,1.05-2.59c0.07-0.11,0.19-0.2,0.31-0.27
			c1.28-0.81,2.63-0.81,3.96-0.03c0.58,0.34,0.89,0.86,1.11,1.46c0.29,0.8,0.44,1.63,0.51,2.47
			C80.14,112.54,80.15,112.69,80.16,112.89"/>
		<path class="st1" d="M103.77,112.86c0.59-1.1,1.18-2.11,1.96-2.98c0.75-0.83,1.63-1.54,2.74-1.81c0.66-0.16,1.37-0.2,2.06-0.17
			c0.68,0.03,1.38,0.16,2.03,0.35c0.95,0.27,1.85,0.7,2.67,1.26c1.29,0.87,2.02,2.74,1.55,4.25c-0.42,1.34-1.59,2.36-2.98,2.31
			c-0.36-0.01-0.72-0.18-1.08-0.28c-0.83-0.23-1.66-0.52-2.5-0.69c-2.26-0.44-3.66,0.47-4.52,2.01c-0.64,1.14-0.94,2.39-1.17,3.66
			c-0.3,1.68-0.44,3.38-0.46,5.08c-0.04,3.47-0.04,6.93-0.05,10.4c-0.01,0.95-0.08,1.9-0.44,2.8c-0.47,1.15-1.26,1.96-2.5,2.25
			c-1.55,0.35-3-0.3-3.77-1.7c-0.39-0.71-0.57-1.47-0.63-2.27c-0.03-0.45-0.04-0.91-0.04-1.37c0-7.37,0-14.74-0.01-22.11
			c0-1.46,0.1-2.89,0.65-4.25c0.07-0.16,0.14-0.32,0.25-0.46c0.89-1.12,2.54-1.44,3.69-1.12c1.35,0.38,1.83,1.37,2.19,2.5
			c0.17,0.54,0.19,1.12,0.28,1.68C103.72,112.41,103.73,112.6,103.77,112.86"/>
	</g>
</g>
<path class="st2" d="M298.87,105.47c-1.35-0.16-2.48-0.77-3.37-1.79c-1.48-1.69-1.75-4.09-0.73-6.11c0.99-1.95,3.12-3.15,5.36-2.91
	c3.09,0.34,4.87,2.65,4.94,5.32c0.07,2.47-1.55,5-4.61,5.48c-0.02,0-0.04,0-0.06,0C299.89,105.47,299.38,105.47,298.87,105.47
	 M300.19,95.57c-0.37,0-0.74,0-1.11,0c-0.32,0.08-0.65,0.14-0.96,0.25c-2.29,0.8-3.54,3.22-2.87,5.54c0.66,2.31,3.12,3.73,5.42,3.16
	c2.42-0.6,3.94-2.97,3.38-5.4C303.57,97.08,302.22,95.95,300.19,95.57"/>
<path class="st2" d="M300.31,100.58c0.8,0.63,1.21,1.59,1.83,2.17H301c-0.32-0.22-0.66-0.77-0.99-1.33
	c-0.4-0.68-0.99-0.93-1.87-0.76v2.47h-0.76V97.3c-0.01-0.01,0.12-0.04,0.25-0.05c0.63,0,1.27-0.02,1.9,0.01
	c0.43,0.02,0.87,0.05,1.27,0.18c0.94,0.3,1.28,1.59,0.6,2.36C301.12,100.12,300.68,100.32,300.31,100.58 M298.14,98.2v1.55
	c0.6,0,1.18,0.05,1.74-0.01c0.69-0.08,0.99-0.74,0.64-1.27c-0.18-0.27-0.46-0.35-0.76-0.4c-0.54,0-1.07,0-1.61-0.01"/>
<g>
	<g>
		<path class="st3" d="M148.37,59.78c0,2.51-2.38,4.52-5.22,4.38c-36.79-3.13-25.32-20.66-7.58-21.66c4.61-0.42,5.89-6.36,1.6-8.2
			c-8.96-4.06-11.25-10.07-11.21-12.97c-0.47-7.75,13.51-6.74,18.98-4.72c2.05,0.57,3.43,2.26,3.43,4.15L148.37,59.78z M152.16,7.25
			l0,63.58c0,2.41-1.97,4.34-4.39,4.25c-29.01-1.06-43.56-9.96-43.56-25.49c0-8.12,6.98-11.09,12.42-12.99
			c2.74-0.96,4.48-3.5,1.09-7.56c-2.04-2.45-3.31-6.34-3.1-11.78c0.69-11.73,9.31-13.19,11.79-13.46c0,0,22.3,0.01,22.3,0.01
			C150.62,3.8,152.16,5.34,152.16,7.25z"/>
	</g>
	<g>
		<path class="st4" d="M152.16,20.72c0.68-5.78,8.93-5.23,14.1-5.66c13.65,1.04,9.32,13.61-2.89,19.2
			c-1.64,0.75-2.68,2.24-2.68,3.87c0.11,7.81,20.1,2.37,20.77,14.82c0,0,0.33,9.93-24.07,11.17c-2.84,0.14-5.22-1.87-5.22-4.38
			L152.16,20.72z M151.82,3.9c0.58,0.05,22.34-0.09,22.87,0.03c9.39,0.38,15.45,15.03,8.12,25.21c-3.39,4.07-1.65,6.61,1.09,7.56
			c5.44,1.9,12.42,4.87,12.42,12.99c0,15.52-14.54,24.42-43.56,25.49c-2.41,0.09-4.39-1.83-4.39-4.25l0-63.58
			C148.37,5.44,149.91,3.9,151.82,3.9z"/>
		<rect x="147.61" y="3.79" class="st4" width="4.55" height="71.28"/>
	</g>
</g>
<g>
	<path class="st0" d="M19.53,167.65l-1.07,0.82c-0.59-0.77-1.31-1.36-2.14-1.76c-0.83-0.4-1.74-0.6-2.74-0.6
		c-1.09,0-2.09,0.26-3.02,0.78c-0.93,0.52-1.64,1.22-2.15,2.1c-0.51,0.88-0.76,1.87-0.76,2.97c0,1.66,0.57,3.05,1.71,4.16
		c1.14,1.11,2.58,1.67,4.31,1.67c1.91,0,3.51-0.75,4.79-2.24l1.07,0.82c-0.68,0.87-1.53,1.53-2.54,2.01
		c-1.02,0.47-2.15,0.71-3.41,0.71c-2.38,0-4.27-0.79-5.64-2.38c-1.16-1.34-1.73-2.96-1.73-4.86c0-2,0.7-3.67,2.1-5.04
		c1.4-1.36,3.15-2.04,5.26-2.04c1.27,0,2.42,0.25,3.45,0.76C18.04,166.04,18.88,166.74,19.53,167.65z"/>
	<path class="st0" d="M34.17,168.41c1.55,0,2.84,0.56,3.86,1.69c0.93,1.03,1.39,2.24,1.39,3.64c0,1.41-0.49,2.64-1.47,3.69
		c-0.98,1.05-2.24,1.58-3.78,1.58c-1.55,0-2.81-0.53-3.79-1.58c-0.98-1.05-1.47-2.28-1.47-3.69c0-1.4,0.46-2.61,1.39-3.63
		C31.32,168.98,32.61,168.41,34.17,168.41z M34.16,169.68c-1.08,0-2.01,0.4-2.78,1.2c-0.77,0.8-1.16,1.76-1.16,2.89
		c0,0.73,0.18,1.41,0.53,2.04c0.35,0.63,0.83,1.12,1.43,1.46c0.6,0.34,1.26,0.51,1.98,0.51c0.72,0,1.38-0.17,1.98-0.51
		c0.6-0.34,1.08-0.83,1.43-1.46c0.35-0.63,0.53-1.31,0.53-2.04c0-1.13-0.39-2.09-1.17-2.89S35.24,169.68,34.16,169.68z"/>
	<path class="st0" d="M49.16,168.67h1.3v1.74c0.45-0.64,0.92-1.11,1.39-1.41c0.66-0.4,1.35-0.59,2.07-0.59
		c0.49,0,0.95,0.1,1.39,0.29c0.44,0.19,0.8,0.45,1.08,0.76c0.28,0.32,0.52,0.77,0.72,1.37c0.43-0.79,0.97-1.39,1.62-1.8
		c0.65-0.41,1.34-0.62,2.09-0.62c0.7,0,1.31,0.18,1.84,0.53c0.53,0.35,0.93,0.84,1.19,1.47c0.26,0.63,0.39,1.58,0.39,2.84v5.5h-1.33
		v-5.5c0-1.08-0.08-1.82-0.23-2.23c-0.15-0.4-0.42-0.73-0.79-0.98c-0.37-0.25-0.82-0.37-1.33-0.37c-0.63,0-1.2,0.19-1.72,0.56
		s-0.9,0.86-1.14,1.48c-0.24,0.62-0.36,1.65-0.36,3.09v3.95h-1.3v-5.16c0-1.22-0.08-2.04-0.23-2.48c-0.15-0.44-0.42-0.78-0.79-1.05
		c-0.38-0.26-0.82-0.39-1.34-0.39c-0.6,0-1.16,0.18-1.68,0.54c-0.52,0.36-0.91,0.85-1.16,1.46c-0.25,0.61-0.38,1.55-0.38,2.81v4.27
		h-1.3V168.67z"/>
	<path class="st0" d="M78.46,164.78v1.27c-0.48-0.2-0.88-0.31-1.22-0.31c-0.25,0-0.46,0.05-0.63,0.15c-0.17,0.1-0.27,0.22-0.31,0.35
		c-0.04,0.13-0.06,0.49-0.06,1.06l0,1.36h2.1v1.12h-2.11l-0.01,8.96h-1.3v-8.96H73.6v-1.12h1.33v-1.58c0-0.72,0.07-1.24,0.2-1.55
		c0.13-0.31,0.36-0.56,0.68-0.75c0.32-0.19,0.7-0.28,1.15-0.28C77.37,164.52,77.88,164.61,78.46,164.78z"/>
	<path class="st0" d="M92.39,168.41c1.55,0,2.84,0.56,3.86,1.69c0.93,1.03,1.39,2.24,1.39,3.64c0,1.41-0.49,2.64-1.47,3.69
		c-0.98,1.05-2.24,1.58-3.78,1.58c-1.55,0-2.81-0.53-3.79-1.58c-0.98-1.05-1.47-2.28-1.47-3.69c0-1.4,0.46-2.61,1.39-3.63
		C89.54,168.98,90.83,168.41,92.39,168.41z M92.38,169.68c-1.08,0-2.01,0.4-2.78,1.2c-0.77,0.8-1.16,1.76-1.16,2.89
		c0,0.73,0.18,1.41,0.53,2.04c0.35,0.63,0.83,1.12,1.43,1.46c0.6,0.34,1.26,0.51,1.98,0.51c0.72,0,1.38-0.17,1.98-0.51
		c0.6-0.34,1.08-0.83,1.43-1.46c0.35-0.63,0.53-1.31,0.53-2.04c0-1.13-0.39-2.09-1.17-2.89C94.38,170.08,93.45,169.68,92.38,169.68z
		"/>
	<path class="st0" d="M106.89,168.67h1.33v1.47c0.4-0.58,0.81-1.01,1.25-1.3c0.44-0.29,0.9-0.43,1.37-0.43
		c0.36,0,0.74,0.11,1.15,0.34l-0.68,1.09c-0.27-0.12-0.5-0.18-0.69-0.18c-0.43,0-0.85,0.18-1.25,0.53c-0.4,0.36-0.71,0.91-0.92,1.65
		c-0.16,0.57-0.24,1.74-0.24,3.48v3.41h-1.33V168.67z"/>
	<path class="st0" d="M121.57,164.93h1.3v3.74h2.06v1.12h-2.06v8.96h-1.3v-8.96h-1.77v-1.12h1.77V164.93z"/>
	<path class="st0" d="M144.26,168.67v10.08h-1.28v-1.73c-0.54,0.66-1.15,1.16-1.83,1.49s-1.42,0.5-2.22,0.5
		c-1.43,0-2.65-0.52-3.66-1.55c-1.01-1.03-1.51-2.29-1.51-3.78c0-1.45,0.51-2.69,1.53-3.73c1.02-1.03,2.25-1.55,3.68-1.55
		c0.83,0,1.58,0.18,2.25,0.53c0.67,0.35,1.26,0.88,1.77,1.58v-1.85H144.26z M139.07,169.66c-0.72,0-1.39,0.18-2,0.53
		c-0.61,0.35-1.1,0.85-1.46,1.49c-0.36,0.64-0.54,1.32-0.54,2.04c0,0.71,0.18,1.39,0.55,2.04c0.36,0.65,0.85,1.15,1.47,1.51
		c0.61,0.36,1.27,0.54,1.98,0.54c0.71,0,1.38-0.18,2.02-0.54c0.64-0.36,1.12-0.84,1.47-1.45c0.34-0.61,0.51-1.3,0.51-2.06
		c0-1.17-0.38-2.14-1.15-2.92C141.14,170.05,140.2,169.66,139.07,169.66z"/>
	<path class="st0" d="M154.6,178.75v-13.97h1.3v5.62c0.54-0.67,1.15-1.17,1.82-1.5c0.67-0.33,1.41-0.5,2.21-0.5
		c1.43,0,2.64,0.52,3.65,1.55c1.01,1.03,1.51,2.29,1.51,3.77c0,1.46-0.51,2.7-1.53,3.73c-1.02,1.03-2.24,1.55-3.68,1.55
		c-0.82,0-1.56-0.18-2.23-0.53c-0.67-0.35-1.26-0.88-1.77-1.58v1.85H154.6z M159.79,177.76c0.72,0,1.39-0.18,2-0.53
		c0.61-0.36,1.1-0.85,1.46-1.5c0.36-0.64,0.54-1.32,0.54-2.04c0-0.72-0.18-1.4-0.55-2.05c-0.36-0.65-0.85-1.15-1.47-1.51
		c-0.61-0.36-1.27-0.54-1.96-0.54c-0.71,0-1.38,0.18-2.02,0.54c-0.64,0.36-1.13,0.85-1.47,1.46c-0.34,0.61-0.51,1.3-0.51,2.07
		c0,1.17,0.38,2.14,1.15,2.93S158.67,177.76,159.79,177.76z"/>
	<path class="st0" d="M174.62,164.78h1.3v13.97h-1.3V164.78z"/>
	<path class="st0" d="M184.87,168.67h1.37l3.46,7.76l3.36-7.76h1.38l-6.01,13.77h-1.37l1.94-4.45L184.87,168.67z"/>
	<path class="st0" d="M215.27,165.12h1.57l3.49,5.62l3.43-5.62h1.58l-4.32,7.12v6.51h-1.34v-6.51L215.27,165.12z"/>
	<path class="st0" d="M239.48,168.41c1.55,0,2.84,0.56,3.86,1.69c0.93,1.03,1.39,2.24,1.39,3.64c0,1.41-0.49,2.64-1.47,3.69
		c-0.98,1.05-2.24,1.58-3.78,1.58c-1.55,0-2.81-0.53-3.79-1.58c-0.98-1.05-1.47-2.28-1.47-3.69c0-1.4,0.46-2.61,1.39-3.63
		C236.63,168.98,237.92,168.41,239.48,168.41z M239.47,169.68c-1.08,0-2.01,0.4-2.78,1.2c-0.77,0.8-1.16,1.76-1.16,2.89
		c0,0.73,0.18,1.41,0.53,2.04c0.35,0.63,0.83,1.12,1.43,1.46c0.6,0.34,1.26,0.51,1.98,0.51s1.38-0.17,1.98-0.51
		c0.6-0.34,1.08-0.83,1.43-1.46c0.35-0.63,0.53-1.31,0.53-2.04c0-1.13-0.39-2.09-1.17-2.89
		C241.47,170.08,240.54,169.68,239.47,169.68z"/>
	<path class="st0" d="M254.31,168.67h1.3v4.71c0,1.15,0.06,1.94,0.19,2.37c0.19,0.62,0.54,1.11,1.06,1.46
		c0.52,0.36,1.15,0.54,1.87,0.54c0.72,0,1.34-0.17,1.84-0.52c0.5-0.35,0.85-0.81,1.04-1.38c0.13-0.39,0.19-1.21,0.19-2.47v-4.71
		h1.33v4.95c0,1.39-0.16,2.44-0.49,3.14c-0.32,0.7-0.81,1.26-1.46,1.65c-0.65,0.4-1.47,0.6-2.45,0.6c-0.98,0-1.8-0.2-2.46-0.6
		c-0.66-0.4-1.15-0.95-1.47-1.67c-0.32-0.71-0.49-1.79-0.49-3.22V168.67z"/>
	<path class="st0" d="M272.86,168.67h1.33v1.47c0.4-0.58,0.81-1.01,1.25-1.3c0.44-0.29,0.9-0.43,1.37-0.43
		c0.36,0,0.74,0.11,1.15,0.34l-0.68,1.09c-0.27-0.12-0.5-0.18-0.69-0.18c-0.43,0-0.85,0.18-1.25,0.53c-0.4,0.36-0.71,0.91-0.92,1.65
		c-0.16,0.57-0.24,1.74-0.24,3.48v3.41h-1.33V168.67z"/>
	<path class="st0" d="M291.48,169.77l-0.83,0.86c-0.69-0.67-1.37-1.01-2.03-1.01c-0.42,0-0.78,0.14-1.08,0.42
		c-0.3,0.28-0.45,0.6-0.45,0.97c0,0.33,0.12,0.64,0.37,0.94c0.25,0.3,0.77,0.66,1.56,1.07c0.97,0.5,1.62,0.98,1.97,1.45
		c0.34,0.47,0.51,1,0.51,1.58c0,0.83-0.29,1.53-0.87,2.1c-0.58,0.57-1.31,0.86-2.18,0.86c-0.58,0-1.14-0.13-1.67-0.38
		c-0.53-0.25-0.97-0.6-1.31-1.05l0.82-0.93c0.66,0.75,1.37,1.12,2.11,1.12c0.52,0,0.96-0.17,1.33-0.5c0.37-0.33,0.55-0.73,0.55-1.18
		c0-0.37-0.12-0.7-0.36-0.99c-0.24-0.28-0.79-0.64-1.63-1.07c-0.91-0.47-1.53-0.93-1.86-1.39c-0.33-0.46-0.49-0.98-0.49-1.57
		c0-0.77,0.26-1.4,0.78-1.91c0.52-0.51,1.18-0.76,1.98-0.76C289.6,168.41,290.54,168.87,291.48,169.77z"/>
</g>
</svg>
