<svg xmlns="http://www.w3.org/2000/svg" viewBox="0 0 662.91 331.63">
    <defs>
        <style>.cls-1,.cls-2{fill:#fff;}.cls-2{fill-rule:evenodd;}</style>
    </defs>
    <g id="Layer_2" data-name="Layer 2">
        <g id="Layer_1-2" data-name="Layer 1">
            <path class="cls-1"
                d="M348.14,240.2C366.48,219,395,233.12,395.8,259.52c1.28,13.21-.65,28.31-10.68,37.84-10.68,11-29.71,7.43-37.28-5.42,1.47,9.43-9.32,17.72-14.61,7.4-2.22-29.78-.83-60.41-.53-90.37.68-5,7.11-8.12,11.22-5,7.58,6.8,2.3,26.18,3.88,36.15l.34.12m31.68,26.58c.62-33.06-33.65-29.08-31.27,2.07.12,29.17,32.73,27,31.27-2.07" />
            <path class="cls-1"
                d="M528.76,271.38c-.3,23.25,21.78,26.92,34.46,9.51,3.9-4.88,11.87.3,9.72,5.41-5.74,19.12-33.55,22.49-48.05,11.52-20.68-16.57-17.21-61,11.16-67.24,15.54-4.07,33.2,5,36.72,21.11,1.6,5.78,3.08,14.7-3.1,18.23-13.16,3.29-27.38.66-40.91,1.46M529.1,261h29.29c0-24.49-29.92-24.45-29.58,0" />
            <path class="cls-1"
                d="M483.29,291.49c-15.72,23.07-46.33,12.06-42.82-16.26q0-17,0-33.91c-1.13-5.94,3.8-13.26,10.25-11.17,12.1,3.71,2.83,38.9,7.09,50.44,2.25,14.94,23,9.37,23.93-3.59,1.35-11.9.5-23.91.75-35.85-1.36-8,7.37-15.43,13.79-8.67,2.26,2.22,2.42,5.48,2.5,8.45q0,26.22,0,52.44c.35,15.77-18,13.07-15.48-1.88" />
            <path class="cls-1"
                d="M612.42,304c-12.88,1.17-34.29-10.16-25.85-25,7.34-6.71,11.16,4.13,15.06,8.76,14.17,13.6,36.94-6.79,12.1-14-9.54-3-20.93-5.09-26.47-14.38-6.5-12.22,3.08-27.23,16.3-28.91,11.77-2,27.75.21,33.14,12.34,1.48,3.89.53,9.57-4.16,10.57-9.48,2.6-10.85-12.62-20.24-11.89-6.83-1.59-16.58,5.8-9.65,12,10.21,6.53,24.34,5.53,33.16,14.74,14.05,17.54-3.49,37.2-23.39,35.7" />
            <path class="cls-1"
                d="M424.05,253.33c-.51,14.83,1.06,29.92-.69,44.62-1.34,6.18-10.2,8.3-13.68,2.73a11.9,11.9,0,0,1-2-8.2q0-39.09,0-78.2c-1.32-7.18,5.53-14.95,12.54-10.15,7.61,6.37,2.27,37.91,3.78,49.2" />
            <path class="cls-1"
                d="M15.94,292.36c1.25,8.76-8.14,17.29-14.26,8.16-3.53-27.87-.22-57-1.33-85.23-2.51-11.21,11.5-18,15-5.67,1.1,10.35.18,20.81.46,31.23,29.07-28.63,55,4.94,47.45,37C60.53,302.61,31,315.15,15.94,292.36m.66-24.68c1.45,37.37,38.38,24.54,30.45-8.87-6.17-27-32.77-13.45-30.45,8.87" />
            <path class="cls-1"
                d="M91.08,271.78c.27,24.42,22.41,26.09,35.44,8.62,2.61-2.29,7.38-1,8.59,2.28,1.48,19-25.32,25.32-39.84,19.75-26.41-9.2-28-52.79-6.16-67.68,22.2-13.82,51.5,4,46.91,30.44-2.44,11.65-34.83,4.87-44.94,6.59M120.68,261c.13-24.65-29.57-24.37-29.56,0Z" />
            <path class="cls-1"
                d="M281.2,284.29c6-17.18,9.68-35.53,17.39-52,4.05-4.72,12-.68,12.14,5.15-.38,5.1-2.42,9.94-4,14.76-6.9,20-13.69,40.1-20.68,60.1-3.88,16.05-17.79,22.9-33.19,17.5-5.1-1.8-5.7-10.8-.24-12.57,3.84-1.47,7.62,1.34,11.49-.12,5.46-2.15,5.94-9.28,8.39-13.94-2.07-9.38-6.57-18.56-9.47-27.86l-10.91-30.54c-1.29-2.76-1.93-5.75-.91-8.74,1.52-5.28,8.67-8.13,12.56-3.4,8,16.14,11,34.66,17.16,51.63l.24,0" />
            <path class="cls-1"
                d="M165.93,241.29c7-21,40.86-7.16,25,6.52-4.4,1.9-8.83-2.59-13.48-1.83-16,3.05-9.49,34.26-11,46.49C168,307,150,308.8,150.16,293.72q0-25.37,0-50.73c.09-3.76.35-7.71,2.7-10.83,6.93-5.7,13.81,1.55,13.06,9.13" />
            <path class="cls-1"
                d="M218.12,241.24c5.61-16.77,31-12.67,28.75,2-7.71,16.16-26.5-17-28.11,26.73-.64,9.66,1.13,19.73-1.09,29.18-3.23,8.85-15.73,5.13-15.26-3.81,1.11-20.54-2.88-42.38,1.9-62.31,7.19-7,14.19.06,13.81,8.21" />
            <path class="cls-1"
                d="M649.35,224.9c-15.21-1.61-12.46-25.72,2.79-23.88,16.09,1.56,13.33,25.91-2.79,23.88M652.27,203c-15.6-1.26-14.17,22.82,1.06,19.78,10.67-2.3,9.8-18.64-1.06-19.78" />
            <path class="cls-1"
                d="M652.55,214.08c1.77,1.39,2.67,3.52,4.05,4.92h-2.53c-1.6-1.66-2.59-5.69-6-4.74V220h-2V206.83c5.54-1.24,14.87,1.71,6.45,7.25M648.1,209v3.26c7.56,1.13,7.37-4.8,0-3.75" />
            <path class="cls-2"
                d="M317.1,123.75c0,5.55-5.27,10-11.54,9.68-81.31-6.92-56-45.66-16.76-47.89,10.2-.93,13-14.05,3.54-18.12-19.8-9-24.87-22.26-24.78-28.67-1-17.13,29.85-14.91,42-10.45,4.52,1.27,7.58,5,7.58,9.18Zm9-116.11V148.17a9.36,9.36,0,0,1-9.73,9.39c-64.11-2.35-96.24-22-96.24-56.33,0-18,15.44-24.52,27.45-28.71,6-2.12,9.91-7.73,2.41-16.72-4.51-5.42-7.32-14-6.85-26C244.66,3.83,263.71.61,269.19,0l49.29,0A7.61,7.61,0,0,1,326.1,7.64Z" />
            <path class="cls-2"
                d="M325.1,37.57c1.5-12.77,19.72-11.57,31.15-12.5,30.17,2.29,20.59,30.08-6.39,42.44a9.56,9.56,0,0,0-5.92,8.57c.24,17.26,44.44,5.23,45.9,32.75,0,0,.72,22-53.21,24.69-6.27.32-11.53-4.13-11.53-9.68ZM324.72.39c1.27.12,49.38-.2,50.54.07C396,1.29,409.4,33.67,393.2,56.17c-7.49,9-3.64,14.61,2.41,16.72,12,4.19,27.45,10.76,27.45,28.71,0,34.31-32.13,54-96.23,56.33a9.34,9.34,0,0,1-9.73-9.38V8A7.61,7.61,0,0,1,324.72.39Z" />
            <rect class="cls-1" x="315.1" width="10" height="158" />
        </g>
    </g>
</svg>