<?xml version="1.0" encoding="UTF-8" standalone="no" ?>
<!DOCTYPE svg PUBLIC "-//W3C//DTD SVG 1.1//EN" "http://www.w3.org/Graphics/SVG/1.1/DTD/svg11.dtd">
<svg xmlns="http://www.w3.org/2000/svg" xmlns:xlink="http://www.w3.org/1999/xlink" version="1.1" width="203" height="158" viewBox="0 0 203 158" xml:space="preserve">
<desc>Created with Fabric.js 3.6.6</desc>
<defs>
</defs>
<g transform="matrix(1 0 0 1 111.45 165.81)"  >
<g style=""   >
		<g transform="matrix(1 0 0 1 -58.34 -87.03)" id="Layer_1-2"  >
<path style="stroke: none; stroke-width: 1; stroke-dasharray: none; stroke-linecap: butt; stroke-dashoffset: 0; stroke-linejoin: miter; stroke-miterlimit: 4; fill: rgb(0,0,0); fill-rule: evenodd; opacity: 1;"  transform=" translate(-273.12, -78.78)" d="M 317.1 123.75 c 0 5.55 -5.27 10 -11.54 9.68 c -81.31 -6.92 -56 -45.66 -16.76 -47.89 c 10.2 -0.93 13 -14.05 3.54 -18.12 c -19.8 -9 -24.87 -22.26 -24.78 -28.67 c -1 -17.13 29.85 -14.91 42 -10.45 c 4.52 1.27 7.58 5 7.58 9.18 Z m 9 -116.11 V 148.17 a 9.36 9.36 0 0 1 -9.73 9.39 c -64.11 -2.35 -96.24 -22 -96.24 -56.33 c 0 -18 15.44 -24.52 27.45 -28.71 c 6 -2.12 9.91 -7.73 2.41 -16.72 c -4.51 -5.42 -7.32 -14 -6.85 -26 C 244.66 3.83 263.71 0.61 269.19 0 l 49.29 0 A 7.61 7.61 0 0 1 326.1 7.64 Z" stroke-linecap="round" />
</g>
		<g transform="matrix(1 0 0 1 38.62 -86.67)" id="Layer_1-2"  >
<path style="stroke: none; stroke-width: 1; stroke-dasharray: none; stroke-linecap: butt; stroke-dashoffset: 0; stroke-linejoin: miter; stroke-miterlimit: 4; fill: rgb(0,0,0); fill-rule: evenodd; opacity: 1;"  transform=" translate(-370.08, -79.14)" d="M 325.1 37.57 c 1.5 -12.77 19.72 -11.57 31.15 -12.5 c 30.17 2.29 20.59 30.08 -6.39 42.44 a 9.56 9.56 0 0 0 -5.92 8.57 c 0.24 17.26 44.44 5.23 45.9 32.75 c 0 0 0.72 22 -53.21 24.69 c -6.27 0.32 -11.53 -4.13 -11.53 -9.68 Z M 324.72 0.39 c 1.27 0.12 49.38 -0.2 50.54 0.07 C 396 1.29 409.4 33.67 393.2 56.17 c -7.49 9 -3.64 14.61 2.41 16.72 c 12 4.19 27.45 10.76 27.45 28.71 c 0 34.31 -32.13 54 -96.23 56.33 a 9.34 9.34 0 0 1 -9.73 -9.38 V 8 A 7.61 7.61 0 0 1 324.72 0.39 Z" stroke-linecap="round" />
</g>
		<g transform="matrix(1 0 0 1 -11.35 -86.81)" id="Layer_1-2"  >
<rect style="stroke: none; stroke-width: 1; stroke-dasharray: none; stroke-linecap: butt; stroke-dashoffset: 0; stroke-linejoin: miter; stroke-miterlimit: 4; fill: rgb(0,0,0); fill-rule: nonzero; opacity: 1;"  x="-5" y="-79" rx="0" ry="0" width="10" height="158" />
</g>
</g>
</g>
</svg>